<?xml version="1.0" encoding="iso-8859-1"?>
<!-- Generator: Adobe Illustrator 17.1.0, SVG Export Plug-In . SVG Version: 6.00 Build 0)  -->
<!DOCTYPE svg PUBLIC "-//W3C//DTD SVG 1.1//EN" "http://www.w3.org/Graphics/SVG/1.1/DTD/svg11.dtd">
<svg xmlns="http://www.w3.org/2000/svg" xmlns:xlink="http://www.w3.org/1999/xlink" version="1.1" id="Capa_1" x="0px" y="0px" viewBox="0 0 432.305 432.305" style="enable-background:new 0 0 432.305 432.305;" xml:space="preserve" width="512px" height="512px">
<g>
	<path d="M86.5,88.653c-22.056,0-40,17.944-40,40s17.944,40,40,40s40-17.944,40-40S108.556,88.653,86.5,88.653z M86.5,148.653   c-11.028,0-20-8.972-20-20s8.972-20,20-20s20,8.972,20,20S97.528,148.653,86.5,148.653z" fill="#FFFFFF"/>
	<path d="M86.5,241.653c-22.056,0-40,17.944-40,40s17.944,40,40,40s40-17.944,40-40S108.556,241.653,86.5,241.653z M86.5,301.653   c-11.028,0-20-8.972-20-20s8.972-20,20-20s20,8.972,20,20S97.528,301.653,86.5,301.653z" fill="#FFFFFF"/>
	<path d="M392.633,250.481c-16.015-21.758-35.359-37.542-56.556-46.556C362.281,189.044,380,160.88,380,128.653   c0-47.696-38.804-86.5-86.5-86.5h-207c-47.696,0-86.5,38.804-86.5,86.5c0,33.138,18.734,61.979,46.165,76.5   C18.734,219.674,0,248.514,0,281.653c0,47.696,38.804,86.5,86.5,86.5h97.811c5.523,0,10-4.477,10-10s-4.477-10-10-10h-42.557   c19.079-15.88,31.246-39.795,31.246-66.5c0-5.876-0.591-11.616-1.713-17.166c21.116,29.799,34.167,70.653,34.167,115.666   c0,5.523,4.477,10,10,10h206.852c5.523,0,10-4.477,10-10C432.305,331.291,418.216,285.24,392.633,250.481z M293.5,62.153   c36.668,0,66.5,29.832,66.5,66.5s-29.832,66.5-66.5,66.5H141.754c19.079-15.88,31.246-39.795,31.246-66.5   s-12.167-50.62-31.246-66.5H293.5z M20,128.653c0-36.668,29.832-66.5,66.5-66.5s66.5,29.832,66.5,66.5s-29.832,66.5-66.5,66.5   S20,165.321,20,128.653z M86.5,348.153c-36.668,0-66.5-29.832-66.5-66.5s29.832-66.5,66.5-66.5s66.5,29.832,66.5,66.5   S123.168,348.153,86.5,348.153z M225.256,370.153c-1.786-45.12-15.644-87.293-39.475-119.671   c-10.678-14.508-22.836-26.365-36.036-35.329H293.5c63.09,0,114.853,68.66,118.589,155H225.256z" fill="#FFFFFF"/>
</g>
<g>
</g>
<g>
</g>
<g>
</g>
<g>
</g>
<g>
</g>
<g>
</g>
<g>
</g>
<g>
</g>
<g>
</g>
<g>
</g>
<g>
</g>
<g>
</g>
<g>
</g>
<g>
</g>
<g>
</g>
</svg>
